<?xml version="1.0" encoding="UTF-8"?>
<!DOCTYPE svg PUBLIC "-//W3C//DTD SVG 1.1//EN" "http://www.w3.org/Graphics/SVG/1.1/DTD/svg11.dtd">
<!-- Creator: CorelDRAW 2019 (64-Bit) -->
<svg xmlns="http://www.w3.org/2000/svg" xml:space="preserve" width="123.27mm" height="119.585mm" version="1.1" style="shape-rendering:geometricPrecision; text-rendering:geometricPrecision; image-rendering:optimizeQuality; fill-rule:evenodd; clip-rule:evenodd"
viewBox="0 0 12327.04 11958.47"
 xmlns:xlink="http://www.w3.org/1999/xlink"
 xmlns:xodm="http://www.corel.com/coreldraw/odm/2003">
 <defs>
  <style type="text/css">
   <![CDATA[
    .fil0 {fill:#C5C5C5}
   ]]>
  </style>
 </defs>
 <g id="Layer_x0020_1">
  <metadata id="CorelCorpID_0Corel-Layer"/>
  <rect class="fil0" x="1442.93" y="3595.76" width="3962.04" height="570.8"/>
  <polygon class="fil0" points="5404.97,9579.09 1442.93,9579.09 1442.93,10149.89 5404.97,10149.89 5404.97,9625.79 5404.99,9625.79 5404.99,9579.17 5404.97,9579.17 "/>
  <rect class="fil0" x="1442.93" y="6587.42" width="3962.04" height="570.8"/>
  <path class="fil0" d="M6217.9 0l-5587.9 0c-347.97,0 -630,282.03 -630,630l0 10698.47c0,347.76 282.03,630 630,630l5587.9 0c347.97,0 630,-282.24 630,-630l0 -10698.47c0,-347.97 -282.03,-630 -630,-630zm-3678.48 1283.6l622.02 0c144.96,0 262.5,117.54 262.5,262.52 0,144.98 -117.54,262.5 -262.5,262.5l-622.02 0c-144.96,0 -262.5,-117.52 -262.5,-262.5 0,-145 117.54,-262.52 262.5,-262.52zm-1358.97 0l412.99 0c144.96,0 262.5,117.54 262.5,262.52 0,144.98 -117.54,262.5 -262.5,262.5l-412.99 0c-144.98,0 -262.52,-117.52 -262.52,-262.5 0,-145 117.54,-262.52 262.52,-262.52zm4749.52 9058.89c0,183.56 -148.81,332.37 -332.39,332.37l-4347.26 0c-183.58,0 -332.39,-148.81 -332.39,-332.37l0 -956.07c0,-183.56 148.81,-332.37 332.39,-332.37l4347.26 0.01c183.58,0 332.39,148.81 332.39,332.37l0 956.06zm0 -2991.64c0,183.56 -148.81,332.37 -332.39,332.37l-4347.26 0c-183.58,0 -332.39,-148.81 -332.39,-332.37l0 -956.07c0,-183.56 148.81,-332.37 332.39,-332.37l4347.26 0.01c183.58,0 332.39,148.81 332.39,332.37l0 956.06zm0 -2991.66c0,183.56 -148.81,332.37 -332.39,332.37l-4347.26 0c-183.58,0 -332.39,-148.81 -332.39,-332.37l0 -956.07c0,-183.56 148.81,-332.37 332.39,-332.37l4347.26 0.01c183.58,0 332.39,148.81 332.39,332.37l0 956.06z"/>
  <path class="fil0" d="M9820.04 1783.11c-671.6,-362.04 -1439.97,-567.42 -2256.45,-567.42 -63.84,0 -127.47,1.26 -190.68,3.78l0 525.63c63.21,-2.94 126.84,-4.41 190.68,-4.41 493.06,0 966.63,84.63 1407.21,240.24 -180.39,127.68 -497.07,368.34 -526.89,502.74 -42,189 441,546 441,840 0,294 -861,446.67 -1071,842.94 -210,396.06 -294,837.06 0,1026.06 294,189 630,21 924,315 294,294 504,420 357,609 -147,189 -462,798 -189,1176 273,378 735,248.85 1302,19.53 567,-229.53 861,102.27 861,219.87 0,20.58 14.7,49.14 39.27,82.11 72.45,98.28 172.62,161.49 281.19,188.79 -597.03,1247.19 -1786.05,2159.01 -3201.04,2368.8 76.44,-270.9 49.35,-351.33 -17.43,-485.1 -84,-168 -189,-483 -147,-588 42,-105 420,-462 189,-861 -75.6,-130.62 -187.32,-227.64 -303.24,-298.83 -229.09,-140.49 -349.44,-405.93 -303.43,-670.74 19.72,-113.4 28.77,-245.49 17.43,-395.22 -35.3,-463.68 1.89,-267.54 -250.74,-456.54l0 4322.44c13.86,0.84 27.93,1.26 42,1.68 49.35,1.47 98.91,2.31 148.68,2.31 158.97,0 316.05,-7.77 471.03,-23.1 1917.53,-188.16 3501.34,-1513.47 4068.34,-3292.39 145.53,-456.54 224.07,-943.11 224.07,-1447.95 -0.02,-1814.4 -1014.53,-3391.93 -2507,-4196.23z"/>
 </g>
</svg>
