<?xml version="1.0" encoding="UTF-8"?>
<!DOCTYPE svg PUBLIC "-//W3C//DTD SVG 1.1//EN" "http://www.w3.org/Graphics/SVG/1.1/DTD/svg11.dtd">
<!-- Creator: CorelDRAW 2019 (64-Bit) -->
<svg xmlns="http://www.w3.org/2000/svg" xml:space="preserve" width="7.2584mm" height="7.2584mm" version="1.1" style="shape-rendering:geometricPrecision; text-rendering:geometricPrecision; image-rendering:optimizeQuality; fill-rule:evenodd; clip-rule:evenodd"
viewBox="0 0 688.41 688.41"
 xmlns:xlink="http://www.w3.org/1999/xlink"
 xmlns:xodm="http://www.corel.com/coreldraw/odm/2003">
 <defs>
  <style type="text/css">
   <![CDATA[
    .str0 {stroke:#C5C5C5;stroke-width:28.45;stroke-miterlimit:22.9256}
    .fil1 {fill:none}
    .fil0 {fill:#C5C5C5}
   ]]>
  </style>
 </defs>
 <g id="Layer_x0020_1">
  <metadata id="CorelCorpID_0Corel-Layer"/>
  <path class="fil0" d="M668.79 346.08c0,6.22 -0.55,12.29 -0.93,18.45 -2.29,-5.78 -5.75,-13.3 -6.57,-16.54 -1.2,-4.92 -8.55,-22.06 -8.55,-22.06 0,0 -7.35,-9.79 -12.24,-12.24 -4.87,-2.46 -8.55,-8.58 -17.14,-13.45 -8.58,-4.92 -12.23,-7.35 -19.55,-7.35 -7.38,0 -14.68,-9.82 -23.28,-14.7 -8.58,-4.87 -9.79,-2.44 -9.79,-2.44 0,0 9.79,14.68 9.79,18.34 0,3.66 10.99,9.79 22.06,7.33 0,0 7.33,13.48 10.99,17.14 3.66,3.66 -1.23,7.35 -8.55,12.24 -7.35,4.87 -6.13,3.66 -9.84,7.33 -3.66,3.66 -15.89,9.84 -19.58,12.24 -3.66,2.44 -18.34,9.79 -25.67,2.44 -3.59,-3.54 -2.48,-10.99 -4.89,-15.91 -2.46,-4.89 -28.16,-42.83 -40.4,-59.95 -2.13,-3.02 -7.35,-12.29 -10.99,-14.68 -3.66,-2.48 8.58,-2.48 8.58,-2.48 0,0 0,-8.58 -1.23,-14.68 -1.25,-6.13 1.23,-14.68 1.23,-14.68 0,0 -12.24,7.33 -15.96,9.79 -3.64,2.46 -7.33,-4.87 -12.2,-11.02 -4.89,-6.1 -9.82,-13.48 -11.02,-19.59 -1.23,-6.1 6.13,-8.55 6.13,-8.55l10.99 -6.1c0,0 13.48,-2.44 22.06,-1.23 8.55,1.23 22,2.46 22,2.46 0,0 3.66,-8.58 -1.23,-12.24 -4.87,-3.66 -15.93,-9.79 -20.83,-8.55 -4.87,1.2 2.44,-6.13 8.54,-11.02l-13.55 -2.46c0,0 -12.32,6.13 -16.01,7.35 -3.66,1.2 -10.03,3.66 -14.96,9.79 -4.87,6.13 1.95,14.68 -2.94,17.14 -4.87,2.46 -8.19,3.66 -11.86,4.87 -3.66,1.23 -15.31,0 -15.31,0 -12.65,0 -4.54,11.54 -1.25,15.63l-9.79 -11.94 -7.26 -17.11c0,0 -10.44,-7.33 -15.34,-9.76 -4.89,-2.46 -19.97,-11.02 -19.97,-11.02l1.05 11.02 14.18 14.35 1.25 0.32 7.38 9.79 -16.28 1.23 0 -9.69c-15.36,-3.72 -11.34,-7.53 -13.07,-8.71 -3.64,-2.44 -12.15,-8.58 -12.15,-8.58 0,0 -14.41,2.46 -18.1,3.69 -3.69,1.23 -4.71,4.89 -12.02,7.33 -7.38,2.46 -10.69,6.13 -13.13,9.79 -2.44,3.66 -10.41,14.68 -15.26,19.58 -4.92,4.92 -14,3.66 -17.67,3.66 -3.69,0 -21.36,-4.89 -21.36,-4.89l0.02 -20.75c0,0 2.38,-11.65 1.18,-15.31l10.72 -1.81 17.89 -3.69 5.24 -3.69 7.53 -9.79c0,0 -8.46,-6.13 -2.36,-14.68 2.94,-4.12 13.5,-4.89 18.39,-8.55 4.87,-3.66 12.27,-6.13 12.27,-6.13 0,0 8.58,-7.33 17.14,-15.91 0,0 6.13,-3.69 13.45,-6.15 0,0 20.83,18.37 24.52,18.37 3.69,0 17.14,-8.55 17.14,-8.55 0,0 3.66,-10.99 2.46,-14.68 -1.23,-3.66 -7.35,-15.91 -7.35,-15.91 0,0 -3.66,6.13 -7.33,11.02 -3.67,4.89 -6.13,11.02 -6.13,11.02 0,0 -17.14,-1.18 -18.34,-4.85 -1.25,-3.69 -3.66,-9.74 -4.92,-13.37 -1.18,-3.69 -10.99,-3.57 -18.3,-1.1 -7.38,2.46 1.18,-13.2 1.18,-13.2 0,0 7.38,-9.24 12.24,-9.24 4.87,0 15.93,-6.27 20.78,-7.47 4.92,-1.23 19.65,-6.83 25.72,-6.83 6.13,0 13.48,2.64 17.17,2.64 3.69,0 18.34,0 18.34,0l25.67 -2.06c0,0 22.06,8.16 14.68,13.07 0,0 8.61,5.29 12.27,8.96 3.43,3.46 12.32,-3.19 17.41,-6.02 91.58,57.46 152.81,159.11 152.81,275.02zm-583.96 -191.52c0,4.89 -6.68,6.07 0,18.37 8.54,15.91 1.2,23.27 1.2,23.27 0,0 -20.83,14.68 -24.49,17.14 -3.66,2.46 -13.45,15.91 -7.35,12.23 6.13,-3.66 13.45,-7.33 7.35,2.46 -6.13,9.82 -17.14,25.69 -19.58,31.85 -2.44,6.16 -14.68,20.8 -14.68,28.16 0,7.35 -4.89,22.06 -3.66,28.18 0.83,4.27 -1.88,16.83 -4.01,22 1.66,-68.81 24.82,-132.22 63.06,-184.09 1.25,0.12 2.15,0.45 2.15,0.45zm39.32 -46.93c29.93,-27.63 65.02,-49.66 103.71,-64.57 -3.81,4.89 -8.43,9.91 -8.43,9.91 0,0 -8.55,-0.03 -24.49,17.14 -15.89,17.15 -12.23,12.25 -15.89,17.12 -3.66,4.87 -2.46,6.13 -11.04,12.27 -8.54,6.1 -12.23,13.45 -12.23,13.45l-13.47 4.89 -10.99 -4.89c0,0 -9.84,3.69 -8.61,-1.23 0.35,-1.3 0.88,-2.66 1.43,-4.09zm146.7 28.56l-4.87 -7.33 4.87 -11.01 11.8 4.71 -0.01 -21.85 11.27 -6.1 9.36 13.45 14.41 15.93 -9.56 7.33 -25.49 4.89 -0.01 -12.97 -11.76 12.95zm159.14 115.06c2.86,-2.26 12.23,3.66 12.23,3.66 0,0 30.59,6.13 35.48,9.79 4.92,3.69 13.48,6.15 15.93,9.84 2.46,3.66 10.99,14.68 12.2,18.34 1.25,3.66 7.38,17.17 8.61,22.03 1.23,4.89 4.89,17.14 8.55,23.27 3.66,6.15 24.49,33.05 31.82,45.3l22.08 -3.66c0,0 -2.48,10.99 -4.92,14.68 -2.44,3.66 -9.79,13.45 -13.45,18.34 -3.69,4.89 -8.55,12.24 -15.91,18.34 -7.33,6.1 -7.38,12.23 -11.02,17.14 -3.66,4.89 -8.58,15.91 -8.58,15.91 0,0 2.46,24.49 3.66,29.38 1.2,4.89 -8.55,18.34 -8.55,18.34l-11.04 11.04 -14.76 19.55 1.2 18.34c0,0 -11.14,8.61 -17.29,13.48 -6.07,4.87 -5.12,8.55 -10.02,13.48 -4.87,4.87 -24.01,13.45 -28.91,14.68 -4.89,1.23 -31.9,4.89 -31.9,4.89l0 -10.99 -0.55 -12.24c0,0 -3.72,-14.68 -7.41,-19.58 -3.69,-4.89 -2.09,-12.27 -8.2,-18.37 -6.13,-6.13 -8.38,-10.99 -9.61,-14.7 -1.23,-3.66 1.33,-14.65 1.33,-14.65 0,0 4.94,-13.48 7.38,-18.37 2.46,-4.89 0.03,-12.23 -2.44,-17.14 -2.47,-4.91 -3.64,-17.17 -3.64,-20.8 0,-3.66 -9.84,-9.82 -13.5,-13.48 -3.66,-3.66 -2.44,-8.58 -2.44,-13.43 0,-4.94 -3.66,-15.93 -2.46,-24.52 1.23,-8.55 -10.99,-2.46 -18.34,0 -7.35,2.46 -12.23,-2.46 -12.23,-9.82 0,-7.36 -13.45,-1.2 -22.03,3.66 -8.61,4.89 -18.37,4.89 -28.21,8.58 -9.76,3.66 -14.63,-3.66 -14.63,-3.66 0,0 -8.61,-7.33 -14.68,-11.02 -6.15,-3.66 -12.27,-10.99 -17.19,-17.11 -4.87,-6.15 -17.14,-24.52 -18.31,-31.82 -1.23,-7.38 0,-12.29 0,-20.86 0,-8.56 0,-13.45 1.2,-19.58 1.23,-6.13 4.89,-13.48 8.58,-19.59 3.66,-6.13 17.14,-13.45 20.78,-15.91 3.66,-2.44 12.24,-9.76 12.24,-14.68 0,-4.89 4.92,-7.33 7.33,-12.24 2.48,-4.89 11.04,-17.11 22.06,-12.23 0,0 9.76,-1.2 13.43,-2.44 3.67,-1.23 13.45,-4.87 18.3,-7.33 4.89,-2.46 17.09,-3.61 17.09,-3.61 0,0 9.64,3.84 13.3,3.84 3.66,0 15.61,-2.13 15.61,-2.13 0,0 5.52,17.75 5.52,21.43 0,3.69 3.66,7.33 9.82,9.79 6.04,2.49 34.22,8.64 46.46,-1.17zm140.76 239.92c0,3.66 -1.23,13.48 -2.46,18.37 -1.28,4.89 -3.69,13.48 -4.89,18.31 -1.23,4.92 -7.35,14.7 -10.99,17.17 -3.66,2.46 -9.82,9.82 -13.45,11.02 -3.66,1.23 -6.15,-8.58 -4.92,-13.48 1.25,-4.89 7.35,-18.34 7.35,-18.34 0,0 1.23,-7.33 2.44,-12.24 1.25,-4.87 15.93,-10.99 15.93,-10.99l9.82 -18.37c-0.06,-0.03 1.18,4.92 1.18,8.55zm-543.16 -72.92c1.58,0.4 3.84,1.56 7.03,4.39 4.62,4.01 7.35,6.07 13.48,8.55 6.1,2.48 8.55,6.1 15.91,9.79 7.35,3.69 4.92,1.25 14.68,12.24 9.82,10.99 8.58,10.99 11.02,17.14 2.44,6.15 6.13,12.23 8.58,15.93 2.46,3.66 9.79,6.1 13.45,8.55 3.66,2.46 9.79,4.89 13.45,4.89 3.69,0 14.7,11.02 20.83,12.23 6.13,1.25 6.13,13.5 6.13,13.5l-6.13 17.11 -4.92 18.34 4.92 14.68c0,0 -7.38,6.15 -12.23,6.15 -4.51,0 -6.05,2.86 -10.99,1.51 -46.67,-43.58 -80.52,-100.6 -95.2,-165.01zm255.05 -295.69l0 0.67 0.4 -0.5 -0.4 -0.17z"/>
  <circle class="fil1 str0" cx="344.21" cy="344.21" r="329.98"/>
 </g>
</svg>
