<?xml version="1.0" encoding="UTF-8"?>
<!DOCTYPE svg PUBLIC "-//W3C//DTD SVG 1.1//EN" "http://www.w3.org/Graphics/SVG/1.1/DTD/svg11.dtd">
<!-- Creator: CorelDRAW 2019 (64-Bit) -->
<svg xmlns="http://www.w3.org/2000/svg" xml:space="preserve" width="7.9376mm" height="7.9376mm" version="1.1" style="shape-rendering:geometricPrecision; text-rendering:geometricPrecision; image-rendering:optimizeQuality; fill-rule:evenodd; clip-rule:evenodd"
viewBox="0 0 793.76 793.76"
 xmlns:xlink="http://www.w3.org/1999/xlink"
 xmlns:xodm="http://www.corel.com/coreldraw/odm/2003">
 <defs>
  <style type="text/css">
   <![CDATA[
    .fil0 {fill:#121212}
    .fil1 {fill:#B5B5B5}
   ]]>
  </style>
 </defs>
 <g id="Layer_x0020_1">
  <metadata id="CorelCorpID_0Corel-Layer"/>
  <rect class="fil0" x="84.38" y="93.8" width="629.71" height="611.19"/>
  <g id="Page-1">
   <g id="Artboard-Copy">
    <path id="rss-button" class="fil1" d="M79.38 0c-43.84,0 -79.38,35.56 -79.38,79.38l0 635c0,43.82 35.53,79.38 79.38,79.38l635 0c43.82,0 79.38,-35.56 79.38,-79.38l0 -635c0,-43.82 -35.56,-79.38 -79.38,-79.38l-635 0zm52.94 589.31c0,-39.87 32.31,-72.18 72.13,-72.18 39.87,0 72.18,32.31 72.18,72.18 0,39.79 -32.31,72.15 -72.18,72.15 -39.82,0 -72.13,-32.36 -72.13,-72.15zm336.5 72.15l-83.95 0c0,-139.51 -113.06,-252.6 -252.54,-252.6l0 -83.93 12.01 -0.26c179.31,0 324.75,145.44 324.75,324.75l-0.27 12.04zm192.48 0l-84.08 0c0,-245.77 -199.15,-444.92 -444.9,-444.92l0 -84.08 12.01 -0.11c285.62,0 517.08,231.46 517.08,517.08l-0.11 12.03z" />
    <g id="slices">
    </g>
   </g>
  </g>
 </g>
</svg>
