<?xml version="1.0" encoding="UTF-8"?>
<!DOCTYPE svg PUBLIC "-//W3C//DTD SVG 1.1//EN" "http://www.w3.org/Graphics/SVG/1.1/DTD/svg11.dtd">
<!-- Creator: CorelDRAW 2019 (64-Bit) -->
<svg xmlns="http://www.w3.org/2000/svg" xml:space="preserve" width="16.3278mm" height="16.3278mm" version="1.1" style="shape-rendering:geometricPrecision; text-rendering:geometricPrecision; image-rendering:optimizeQuality; fill-rule:evenodd; clip-rule:evenodd"
viewBox="0 0 1609.34 1609.34"
 xmlns:xlink="http://www.w3.org/1999/xlink"
 xmlns:xodm="http://www.corel.com/coreldraw/odm/2003">
 <defs>
  <style type="text/css">
   <![CDATA[
    .fil1 {fill:none}
    .fil0 {fill:#C5C5C5}
   ]]>
  </style>
 </defs>
 <g id="Layer_x0020_1">
  <metadata id="CorelCorpID_0Corel-Layer"/>
  <g id="_2305902635152">
   <path class="fil0" d="M678.25 577.22l-89.4 352.97c-41.78,166.56 -82.51,287.29 -122.26,362.16 -39.75,74.87 -86.21,130.26 -139.44,166.17 -53.22,35.91 -114.23,53.86 -182.99,53.86 -43.29,0 -75.14,-8.29 -95.5,-24.83 -20.36,-16.56 -30.56,-36.05 -30.56,-58.44 0,-20.89 8.4,-38.96 25.22,-54.24 16.82,-15.28 38.96,-22.93 66.47,-22.93 22.93,0 40.5,5.86 52.7,17.57 12.2,11.71 18.33,26.49 18.33,44.3 0,16.3 -3.8,28.38 -11.45,36.3 -7.64,7.9 -11.45,13.12 -11.45,15.67l3.8 5.34c3.06,2.55 6.62,3.8 10.69,3.8 15.28,0 28.27,-4.85 38.96,-14.53 27.02,-23.94 47.12,-52.97 60.34,-87.1 9.18,-23.42 26.73,-85.31 52.7,-185.66l155.87 -610.45 -106.17 0.02 25.22 -89.4c38.2,0.52 65.95,-4.33 83.27,-14.53 17.32,-10.2 35.65,-33.12 55,-68.77 56.01,-103.4 115.11,-177.51 177.26,-222.32 62.14,-44.81 131.41,-67.23 207.82,-67.23 48.9,0 84.42,9.44 106.59,28.27 22.17,18.86 33.23,43.29 33.23,73.36 0,26.49 -7.38,47.49 -22.17,63.03 -14.76,15.54 -33.12,23.31 -55,23.31 -20.36,0 -37.19,-6.37 -50.44,-19.09 -13.25,-12.72 -19.87,-28.01 -19.87,-45.84 0,-12.72 4.2,-26.24 12.6,-40.5 8.4,-14.24 12.6,-23.94 12.6,-29.03 0,-5.61 -1.9,-10.2 -5.74,-13.74 -3.8,-3.55 -8.79,-5.34 -14.89,-5.34 -30.04,0 -60.86,18.59 -92.44,55.78 -51.95,59.59 -93.72,153.84 -125.31,282.69l110.76 0 -26.73 89.4 -107.62 0 0 -0.05z"/>
   <path class="fil0" d="M860.85 512.26l266.66 -45.84c48.38,75.91 82.51,159.42 102.39,250.59 49.91,-73.85 87.59,-125.54 113.07,-155.09 34.13,-39.72 62.27,-65.58 84.42,-77.56 22.17,-11.95 45.71,-17.94 70.67,-17.94 28.01,0 49.52,7.64 64.57,22.93 14.99,15.28 22.53,35.91 22.53,61.89 0,24.46 -7.54,44.44 -22.53,59.98 -15.02,15.54 -33.75,23.31 -56.14,23.31 -16.3,0 -35.05,-2.92 -56.14,-8.79 -21.15,-5.84 -35.78,-8.79 -43.94,-8.79 -21.39,0 -41.78,7.64 -61.13,22.93 -26.49,20.89 -59.09,65.46 -97.8,133.7 43.29,152.79 77.93,246.03 103.9,279.64 15.28,19.87 30.82,29.81 46.6,29.81 13.25,0 24.7,-3.31 34.37,-9.94 14.76,-10.69 37.44,-37.44 67.99,-80.22l27.51 16.04c-44.83,72.32 -88.62,123.27 -131.41,152.79 -32.6,22.93 -64.68,34.37 -96.26,34.37 -32.6,0 -59.72,-7.25 -81.36,-21.77 -21.67,-14.53 -40.86,-38.2 -57.69,-71.07 -16.82,-32.86 -36.67,-85.44 -59.59,-157.77 -59.59,75.88 -106.32,131.31 -140.2,166.17 -33.91,34.89 -62.02,57.69 -84.42,68.37 -22.4,10.68 -46.36,16.09 -71.84,16.09 -26.47,0 -47.49,-7.64 -63.03,-22.93 -15.54,-15.28 -23.31,-35.16 -23.31,-59.59 0,-25.97 8.4,-47.36 25.22,-64.18 16.82,-16.82 38.2,-25.22 64.18,-25.22 13.74,0 29.28,4.07 46.6,12.23 25.48,12.23 43.81,18.33 55,18.33 14.76,0 28.01,-3.06 39.72,-9.18 15.28,-7.64 34.64,-24.2 58.07,-49.66 14.26,-15.78 40.5,-49.42 78.7,-100.84 -48.9,-181.32 -87.1,-289.81 -114.61,-325.46 -17.32,-22.93 -39.22,-34.37 -65.72,-34.37 -13.74,0 -30.56,2.03 -50.44,6.1l5.39 -29.06z"/>
  </g>
  <rect class="fil1" x="-0" y="-0" width="1609.34" height="1609.34"/>
 </g>
</svg>
