<?xml version="1.0" encoding="UTF-8"?>
<!DOCTYPE svg PUBLIC "-//W3C//DTD SVG 1.1//EN" "http://www.w3.org/Graphics/SVG/1.1/DTD/svg11.dtd">
<!-- Creator: CorelDRAW 2019 (64-Bit) -->
<svg xmlns="http://www.w3.org/2000/svg" xml:space="preserve" width="68.4788mm" height="119.584mm" version="1.1" style="shape-rendering:geometricPrecision; text-rendering:geometricPrecision; image-rendering:optimizeQuality; fill-rule:evenodd; clip-rule:evenodd"
viewBox="0 0 3804.13 6643.13"
 xmlns:xlink="http://www.w3.org/1999/xlink"
 xmlns:xodm="http://www.corel.com/coreldraw/odm/2003">
 <defs>
  <style type="text/css">
   <![CDATA[
    .fil0 {fill:#C5C5C5}
   ]]>
  </style>
 </defs>
 <g id="Layer_x0020_1">
  <metadata id="CorelCorpID_0Corel-Layer"/>
  <rect class="fil0" x="801.57" y="1997.51" width="2200.98" height="317.09"/>
  <polygon class="fil0" points="3002.55,5321.35 801.57,5321.35 801.57,5638.44 3002.55,5638.44 3002.55,5347.29 3002.56,5347.29 3002.56,5321.39 3002.55,5321.39 "/>
  <rect class="fil0" x="801.57" y="3659.42" width="2200.98" height="317.09"/>
  <path class="fil0" d="M3454.15 0l-3104.17 0c-193.3,0 -349.98,156.67 -349.98,349.98l0 5943.18c0,193.19 156.67,349.98 349.98,349.98l3104.17 0c193.3,0 349.98,-156.79 349.98,-349.98l0 -5943.18c0,-193.3 -156.67,-349.98 -349.98,-349.98zm-2043.46 713.06l345.54 0c80.53,0 145.82,65.3 145.82,145.83 0,80.54 -65.3,145.82 -145.82,145.82l-345.54 0c-80.53,0 -145.82,-65.28 -145.82,-145.82 0,-80.55 65.3,-145.83 145.82,-145.83zm-754.93 0l229.42 0c80.53,0 145.82,65.3 145.82,145.83 0,80.54 -65.3,145.82 -145.82,145.82l-229.42 0c-80.54,0 -145.83,-65.28 -145.83,-145.82 0,-80.55 65.3,-145.83 145.83,-145.83zm2638.44 5032.37c0,101.97 -82.67,184.64 -184.65,184.64l-2414.98 0c-101.98,0 -184.65,-82.67 -184.65,-184.64l0 -531.11c0,-101.97 82.67,-184.64 184.65,-184.64l2414.98 0.01c101.98,0 184.65,82.67 184.65,184.64l0 531.11zm0 -1661.91c0,101.97 -82.67,184.64 -184.65,184.64l-2414.98 0c-101.98,0 -184.65,-82.67 -184.65,-184.64l0 -531.11c0,-101.97 82.67,-184.64 184.65,-184.64l2414.98 0.01c101.98,0 184.65,82.67 184.65,184.64l0 531.11zm0 -1661.92c0,101.97 -82.67,184.64 -184.65,184.64l-2414.98 0c-101.98,0 -184.65,-82.67 -184.65,-184.64l0 -531.11c0,-101.97 82.67,-184.64 184.65,-184.64l2414.98 0.01c101.98,0 184.65,82.67 184.65,184.64l0 531.11z"/>
 </g>
</svg>
