<?xml version="1.0" encoding="UTF-8"?>
<!DOCTYPE svg PUBLIC "-//W3C//DTD SVG 1.1//EN" "http://www.w3.org/Graphics/SVG/1.1/DTD/svg11.dtd">
<!-- Creator: CorelDRAW 2019 (64-Bit) -->
<svg xmlns="http://www.w3.org/2000/svg" xml:space="preserve" width="5.3469mm" height="5.5562mm" version="1.1" style="shape-rendering:geometricPrecision; text-rendering:geometricPrecision; image-rendering:optimizeQuality; fill-rule:evenodd; clip-rule:evenodd"
viewBox="0 0 482 500.87"
 xmlns:xlink="http://www.w3.org/1999/xlink"
 xmlns:xodm="http://www.corel.com/coreldraw/odm/2003">
 <defs>
  <style type="text/css">
   <![CDATA[
    .fil0 {fill:#C5C5C5}
   ]]>
  </style>
 </defs>
 <g id="Layer_x0020_1">
  <metadata id="CorelCorpID_0Corel-Layer"/>
  <polygon id="Shape" class="fil0" points="243.49,310.07 291.2,310.07 291.2,166.96 243.49,166.96 243.49,310.07 "/>
  <polygon id="Shape_0" class="fil0" points="338.89,0 195.79,0 195.79,47.7 338.89,47.7 338.89,0 "/>
  <path id="Shape_1" class="fil0" d="M71.69 197.24l45.22 15.82c26.86,-55.79 83.75,-93.81 150.44,-93.81 93.02,0 166.96,73.94 166.96,166.96 0,93.02 -73.94,166.96 -166.96,166.96l0 0c-93.02,0 -166.96,-73.94 -166.96,-166.96l-47.7 0c0,119.25 95.4,214.65 214.65,214.65 119.25,0 214.65,-95.4 214.65,-214.65 0,-50.08 -16.69,-97.79 -47.7,-133.57l0 0 35.78 -33.39c-11.93,-11.93 -23.85,-23.85 -35.78,-33.39l-33.39 33.39c-35.78,-28.62 -83.48,-47.71 -133.57,-47.71 -87.44,0 -162.06,51.3 -195.65,125.69z"/>
  <polygon class="fil0" points="83.02,237.32 124.54,283.24 166.05,329.16 83.02,329.16 -0,329.16 41.51,283.24 "/>
 </g>
</svg>
