<?xml version="1.0" encoding="UTF-8"?>
<!DOCTYPE svg PUBLIC "-//W3C//DTD SVG 1.1//EN" "http://www.w3.org/Graphics/SVG/1.1/DTD/svg11.dtd">
<!-- Creator: CorelDRAW 2019 (64-Bit) -->
<svg xmlns="http://www.w3.org/2000/svg" xml:space="preserve" width="4.7624mm" height="5.5562mm" version="1.1" style="shape-rendering:geometricPrecision; text-rendering:geometricPrecision; image-rendering:optimizeQuality; fill-rule:evenodd; clip-rule:evenodd"
viewBox="0 0 476.24 555.62"
 xmlns:xlink="http://www.w3.org/1999/xlink"
 xmlns:xodm="http://www.corel.com/coreldraw/odm/2003">
 <defs>
  <style type="text/css">
   <![CDATA[
    .fil0 {fill:#C5C5C5}
   ]]>
  </style>
 </defs>
 <g id="Layer_x0020_1">
  <metadata id="CorelCorpID_0Corel-Layer"/>
  <g id="Page-1">
   <g id="Icons-Device">
    <g id="timer">
     <path id="Shape" class="fil0" d="M317.49 0l-158.75 0 0 52.91 158.75 0 0 -52.91 0 0zm-105.83 343.96l52.92 0 0 -158.75 -52.92 0 0 158.75 0 0zm211.67 -174.63l39.69 -37.04c-13.23,-13.23 -26.46,-26.46 -39.69,-37.04l-37.04 37.04c-39.69,-31.75 -92.61,-52.92 -148.17,-52.92 -132.29,0 -238.12,105.84 -238.12,238.13 0,132.29 105.83,238.12 238.12,238.12 132.29,0 238.12,-105.83 238.12,-238.12 0,-55.56 -18.52,-108.48 -52.91,-148.17l0 0zm-185.21 333.38c-103.19,0 -185.21,-82.02 -185.21,-185.21 0,-103.19 82.02,-185.21 185.21,-185.21 103.19,0 185.21,82.02 185.21,185.21 0,103.19 -82.02,185.21 -185.21,185.21l0 0z"/>
    </g>
   </g>
  </g>
 </g>
</svg>
